<svg width="52" height="52" viewBox="0 0 52 52" fill="none" xmlns="http://www.w3.org/2000/svg">
<g clip-path="url(#clip0_2_128)">
<path d="M52.0022 26.1603C52.0022 11.7108 40.3607 -0.00219727 26.0022 -0.00219727C11.6372 0.00105274 -0.00427246 11.7108 -0.00427246 26.1636C-0.00427246 39.2188 9.50523 50.0413 21.9332 52.0043V33.7231H15.3357V26.1636H21.9397V20.3948C21.9397 13.8396 25.8235 10.2191 31.7612 10.2191C34.6082 10.2191 37.582 10.7293 37.582 10.7293V17.1643H34.3027C31.0755 17.1643 30.068 19.1826 30.068 21.2528V26.1603H37.2765L36.126 33.7198H30.0647V52.0011C42.4927 50.0381 52.0022 39.2156 52.0022 26.1603Z" fill="#00A3E0"/>
</g>
<defs>
<clipPath id="clip0_2_128">
<rect width="52" height="52" fill="white"/>
</clipPath>
</defs>
</svg>
