<svg width="247" height="48" viewBox="0 0 247 48" fill="none" xmlns="http://www.w3.org/2000/svg">
<g clip-path="url(#clip0_2_21)">
<path d="M71.5941 27.4684C71.5941 26.485 71.4921 25.7065 71.345 25.1739C71.1694 24.6207 70.9162 24.2151 70.5405 23.9898C70.1648 23.7644 69.638 23.6374 68.9601 23.6374C68.3311 23.6374 67.8288 23.7644 67.4776 23.9898C67.1264 24.2151 66.8732 24.6207 66.6976 25.1739C66.5465 25.7024 66.473 26.485 66.473 27.4684V32.4589C66.473 33.4668 66.5465 34.2207 66.6976 34.778C66.8732 35.3065 67.1264 35.7122 67.4776 35.9375C67.8288 36.1875 68.3311 36.2899 68.9601 36.2899C69.638 36.2899 70.1648 36.1875 70.5405 35.9375C70.9162 35.7122 71.1694 35.3065 71.345 34.778C71.4961 34.2248 71.5941 33.4668 71.5941 32.4589V27.4684ZM82.494 22.0763C83.4496 23.2359 83.9519 24.9485 83.9519 27.1898V31.7501C83.9519 34.5977 83.4741 37.1175 82.5716 39.3096H78.7777C79.6067 36.9414 80.0314 34.4215 80.0314 31.7501V27.2143C80.0314 25.9032 79.8558 24.9731 79.5046 24.4446C79.1779 23.916 78.6021 23.6374 77.7975 23.6374C76.993 23.6374 76.3641 23.916 76.0129 24.4691C75.6862 24.9977 75.5106 25.9319 75.5106 27.2143V32.4794C75.5106 34.8476 74.9592 36.6382 73.8525 37.8223C72.7458 39.0064 71.1163 39.6128 68.956 39.6128C66.7956 39.6128 65.2397 39.0064 64.1329 37.7977C63.0548 36.6136 62.4994 34.823 62.4994 32.4835V27.4438C62.4994 25.1247 63.0262 23.3629 64.0798 22.1542C65.1335 20.9455 66.6649 20.3391 68.6987 20.3391C69.9279 20.3391 70.9571 20.5644 71.7616 21.0438C72.5661 21.4986 73.1419 22.2033 73.4686 23.0843C73.9465 22.1501 74.5468 21.4453 75.3268 20.9946C76.1068 20.5644 77.0584 20.3391 78.2386 20.3391C80.0967 20.3391 81.5016 20.9168 82.4817 22.0763H82.494Z" fill="#00A3E0"/>
<path d="M98.8662 22.1255C99.9729 23.3342 100.524 25.1001 100.524 27.4397V31.7501C100.524 34.5977 100.071 37.1175 99.1439 39.3096H95.301C96.13 36.9414 96.5547 34.4215 96.5547 31.7501V27.4684C96.5547 26.485 96.4812 25.7065 96.3056 25.1739C96.1545 24.6207 95.9054 24.2151 95.5542 23.9898C95.203 23.7644 94.7006 23.6374 94.0717 23.6374C93.4428 23.6374 92.916 23.7644 92.5648 23.9898C92.2136 24.2151 91.9604 24.6207 91.8134 25.1739C91.6377 25.7024 91.5642 26.485 91.5642 27.4684V31.7255C91.5642 34.3723 91.993 36.8922 92.818 39.3096H88.9751C88.0725 37.0684 87.5947 34.5485 87.5947 31.7746V27.4397C87.5947 25.096 88.146 23.3342 89.2283 22.1255C90.335 20.9414 91.94 20.335 94.0758 20.335C96.2117 20.335 97.7921 20.9414 98.8703 22.1255H98.8662Z" fill="#00A3E0"/>
<path d="M112.102 35.6794C112.502 35.2246 112.731 34.4707 112.731 33.4627C112.731 32.4548 112.506 31.6722 112.102 31.2215C111.702 30.7421 111.048 30.5168 110.142 30.5168C109.288 30.5168 108.659 30.7421 108.259 31.2215C107.859 31.6763 107.655 32.4302 107.655 33.4627C107.655 34.4953 107.855 35.2246 108.259 35.6794C108.688 36.1588 109.313 36.3841 110.166 36.3841C111.02 36.3841 111.698 36.1588 112.098 35.6794H112.102ZM116.696 33.4873C116.696 37.5682 114.511 39.6087 110.166 39.6087C105.821 39.6087 103.689 37.5682 103.689 33.4873C103.689 29.9104 105.323 27.8699 108.61 27.4151V26.3826C108.61 25.981 108.508 25.6287 108.284 25.3746C108.083 25.096 107.708 24.7437 107.152 24.293C106.826 23.9898 106.577 23.7644 106.401 23.5636C106.225 23.3629 106.099 23.1088 105.972 22.781C105.87 22.4778 105.821 22.0517 105.821 21.4945V20.6136H109.84V21.0438C109.84 21.3962 109.913 21.6994 110.117 21.9247C110.293 22.1746 110.595 22.4778 111.048 22.8302C111.6 23.2604 111.979 23.662 112.229 24.0881C112.478 24.5142 112.58 25.0714 112.58 25.7762V27.5667C115.316 28.2469 116.696 30.2136 116.696 33.4873Z" fill="#00A3E0"/>
<path d="M131.259 22.1255C132.366 23.3342 132.893 25.1001 132.893 27.4397V31.7501C132.893 34.5977 132.44 37.1175 131.537 39.3096H127.694C128.523 36.9414 128.923 34.4215 128.923 31.7501V27.4684C128.923 26.485 128.85 25.7065 128.699 25.1739C128.548 24.6207 128.299 24.2151 127.947 23.9898C127.572 23.7644 127.094 23.6374 126.44 23.6374C125.787 23.6374 125.309 23.7644 124.958 23.9898C124.607 24.2151 124.329 24.6207 124.178 25.1739C124.027 25.7024 123.953 26.485 123.953 27.4684V31.7255C123.953 34.3723 124.354 36.8922 125.207 39.3096H121.364C120.433 37.0684 119.984 34.5485 119.984 31.7746V27.4397C119.984 25.096 120.535 23.3342 121.617 22.1255C122.695 20.9414 124.305 20.335 126.44 20.335C128.576 20.335 130.157 20.9414 131.263 22.1255H131.259Z" fill="#00A3E0"/>
<path d="M136.56 20.6136H140.53V33.4382C140.53 34.4707 140.754 35.2287 141.183 35.6794C141.612 36.1588 142.314 36.3841 143.294 36.3841C144.275 36.3841 144.953 36.1588 145.406 35.704C145.835 35.2492 146.035 34.4953 146.035 33.4627C146.035 33.0079 145.986 32.631 145.859 32.254C145.708 31.9017 145.532 31.4469 145.255 30.9183C144.953 30.3119 144.728 29.7588 144.577 29.304C144.426 28.8492 144.352 28.296 144.352 27.6896V27.3127H148.322C148.346 27.8166 148.424 28.2714 148.546 28.673C148.673 29.0499 148.873 29.5539 149.151 30.1603C149.453 30.865 149.678 31.4469 149.804 31.873C149.955 32.3278 150.004 32.8563 150.004 33.4873C150.004 37.5682 147.77 39.6087 143.299 39.6087C138.827 39.6087 136.568 37.5437 136.568 33.4627V20.6136H136.56Z" fill="#00A3E0"/>
<path d="M164.408 22.1255C165.515 23.3342 166.066 25.1001 166.066 27.4397V31.7501C166.066 34.5977 165.613 37.1175 164.686 39.3096H160.843C161.696 36.9414 162.097 34.4215 162.097 31.7501V27.4684C162.097 26.485 162.023 25.7065 161.872 25.1739C161.721 24.6207 161.443 24.2151 161.092 23.9898C160.741 23.7644 160.238 23.6374 159.61 23.6374C158.981 23.6374 158.478 23.7644 158.103 23.9898C157.751 24.2151 157.498 24.6207 157.351 25.1739C157.2 25.7024 157.127 26.485 157.127 27.4684V31.7255C157.127 34.3723 157.527 36.8922 158.356 39.3096H154.513C153.61 37.0684 153.157 34.5485 153.157 31.7746V27.4397C153.157 25.096 153.684 23.3342 154.791 22.1255C155.869 20.9414 157.478 20.335 159.614 20.335C161.749 20.335 163.33 20.9414 164.408 22.1255Z" fill="#00A3E0"/>
<path d="M183.896 36.9659C184.501 36.2858 184.799 35.1754 184.799 33.5898C184.799 32.0041 184.497 30.82 183.896 30.1398C183.292 29.4842 182.316 29.1319 180.984 29.1319C179.653 29.1319 178.726 29.4842 178.122 30.1398C177.517 30.82 177.219 31.9795 177.219 33.5898C177.219 35.2 177.546 36.2858 178.15 36.9659C178.755 37.6461 179.706 37.9739 181.013 37.9739C182.32 37.9739 183.3 37.6461 183.9 36.9659H183.896ZM185.681 29.5334C186.461 30.5905 186.861 31.9508 186.861 33.6143C186.861 35.5524 186.359 37.0643 185.33 38.1501C184.325 39.2072 182.896 39.7644 181.009 39.7644C179.931 39.7644 178.951 39.5145 178.044 39.0105C177.166 38.5311 176.464 37.8018 175.933 36.8922C175.43 35.958 175.181 34.8517 175.181 33.6184C175.181 32.3851 175.406 31.3526 175.859 30.443C176.313 29.5334 176.937 28.8287 177.742 28.3001C178.546 27.7716 179.449 27.4684 180.454 27.3946V25.7803C180.454 25.2517 180.327 24.8215 180.102 24.5224C179.878 24.1946 179.527 23.8914 179.073 23.6415C178.595 23.3629 178.244 23.0351 178.02 22.6335C177.795 22.232 177.668 21.8018 177.668 21.3224V20.4661H179.727V21.0192C179.727 21.3716 179.8 21.6748 179.976 21.9001C180.151 22.1501 180.454 22.3795 180.878 22.654C181.405 22.9818 181.834 23.3588 182.083 23.8136C182.361 24.2438 182.483 24.8461 182.483 25.5508V27.5175C183.839 27.7962 184.893 28.4763 185.673 29.5334H185.681Z" fill="#00A3E0"/>
<path d="M196.577 20.462V21.2159C196.577 21.9698 196.65 22.6008 196.777 23.0802C196.879 23.5841 197.079 24.0389 197.353 24.4896C197.63 24.9198 198.079 25.5222 198.684 26.2802C199.386 27.1857 199.913 27.9191 200.293 28.4722C200.644 29.0254 200.922 29.7301 201.146 30.5618C201.371 31.3936 201.498 32.4261 201.498 33.684C201.498 34.9419 201.249 36.0277 200.746 36.9577C200.268 37.8633 199.566 38.5434 198.712 39.0228C197.834 39.5022 196.83 39.7521 195.699 39.7521C193.967 39.7521 192.558 39.2236 191.504 38.1665C190.475 37.1093 189.949 35.6466 189.949 33.7823C189.949 32.0451 190.377 30.5577 191.231 29.2958L192.889 29.9022C192.611 30.4307 192.411 30.9839 192.235 31.5657C192.084 32.1721 191.986 32.9014 191.986 33.7577C191.986 35.2942 192.289 36.38 192.864 37.0069C193.44 37.6625 194.396 37.9657 195.703 37.9657C197.01 37.9657 197.99 37.6379 198.565 36.9823C199.141 36.3268 199.443 35.1918 199.443 33.5816C199.443 32.549 199.37 31.7173 199.194 31.0617C199.043 30.3816 198.794 29.8284 198.516 29.349C198.214 28.8697 197.736 28.2141 197.112 27.411C196.434 26.5547 195.931 25.8499 195.605 25.2927C195.253 24.715 195 24.1332 194.853 23.5022C194.678 22.8712 194.604 22.1419 194.604 21.2609V20.4538H196.589L196.577 20.462Z" fill="#00A3E0"/>
<path d="M213.831 36.9659C214.46 36.2858 214.762 35.1754 214.762 33.5898C214.762 32.0041 214.435 30.8937 213.757 30.2136C213.079 29.5334 212.148 29.2056 210.87 29.2056C210.143 29.2056 209.49 29.3327 208.861 29.558C208.207 29.7834 207.656 30.1357 207.178 30.5659V33.5898C207.178 35.1754 207.481 36.2858 208.081 36.9659C208.681 37.6461 209.637 37.9739 210.968 37.9739C212.299 37.9739 213.227 37.6461 213.831 36.9659ZM214.031 28.0994C214.885 28.5787 215.538 29.2589 216.04 30.189C216.543 31.1478 216.792 32.2786 216.792 33.6143C216.792 35.6302 216.265 37.1421 215.236 38.1992C214.182 39.2318 212.749 39.7603 210.968 39.7603C209.188 39.7603 207.803 39.2318 206.75 38.2238C205.696 37.1913 205.169 35.7286 205.169 33.8151V25.3009C205.169 23.8382 205.647 22.654 206.602 21.7731C207.534 20.8922 208.787 20.462 210.343 20.462H215.616V22.3017H210.592C209.363 22.3017 208.481 22.5516 207.954 23.031C207.427 23.535 207.174 24.3421 207.174 25.4484V29.0254C207.652 28.4968 208.252 28.0912 208.959 27.8166C209.665 27.5421 210.441 27.3864 211.246 27.3864C212.275 27.411 213.206 27.6364 214.035 28.0912L214.031 28.0994Z" fill="#00A3E0"/>
<path d="M220.659 31.7009L222.493 32.1311C222.166 32.9383 222.015 33.7455 222.015 34.5485C222.015 36.843 223.244 37.9739 225.731 37.9739C227.112 37.9739 228.067 37.6707 228.619 37.0397C229.194 36.4087 229.472 35.3024 229.472 33.7659C229.472 32.2295 229.17 31.1191 228.57 30.3898C227.994 29.6604 227.014 29.2794 225.682 29.2794H224.576V27.5175H226.009C227.14 27.5175 227.916 27.2143 228.369 26.6366C228.798 26.0302 229.023 25.2517 229.023 24.2684C229.023 23.6374 228.921 23.0351 228.721 22.4533C228.496 21.8755 228.194 21.22 227.741 20.462H229.701C230.579 21.7198 231.032 23.0556 231.032 24.4159C231.032 25.4238 230.73 26.3047 230.179 27.0627C229.627 27.8207 228.721 28.2714 227.491 28.4476C228.925 28.5992 229.925 29.177 230.579 30.1849C231.208 31.2174 231.51 32.4507 231.51 33.8643C231.51 35.7777 231.008 37.2405 229.979 38.2484C228.974 39.2563 227.545 39.7603 225.735 39.7603C224.629 39.7603 223.624 39.535 222.746 39.1047C221.892 38.7032 221.19 38.0968 220.712 37.3142C220.21 36.5316 219.961 35.6015 219.961 34.569C219.961 33.4586 220.21 32.504 220.663 31.6968L220.659 31.7009Z" fill="#00A3E0"/>
<path d="M245.093 21.8755C246.073 22.9859 246.575 24.6453 246.575 26.8907V30.2914C246.575 32.2294 246.4 33.9954 246.098 35.5565C245.795 37.1175 245.371 38.4287 244.766 39.4612H242.781C243.986 37.3962 244.591 34.3232 244.591 30.2668V27.0177C244.591 25.7311 244.464 24.7232 244.239 24.0184C244.015 23.2891 243.635 22.7851 243.108 22.4819C242.581 22.1787 241.826 22.0271 240.899 22.0271C239.972 22.0271 239.241 22.1787 238.714 22.4819C238.187 22.7851 237.811 23.2891 237.558 24.0184C237.334 24.7232 237.207 25.7311 237.207 27.0177V30.2668C237.207 32.1557 237.407 33.9216 237.758 35.5565C238.109 37.1708 238.538 38.4778 239.041 39.4612H236.982C236.505 38.5024 236.08 37.1954 235.729 35.5319C235.377 33.8438 235.202 32.1065 235.202 30.2914V26.8661C235.202 24.6248 235.704 22.9613 236.684 21.851C237.664 20.7693 239.069 20.212 240.903 20.212C242.737 20.212 244.117 20.7652 245.097 21.8755H245.093Z" fill="#00A3E0"/>
<path d="M23.7557 26.5876C23.9803 28.8534 24.1069 30.0129 22.2733 31.955C20.3661 33.9709 15.5921 37.6749 10.72 40.4979C8.66178 41.7066 5.8725 43.1448 3.76523 43.8987C2.20928 44.4764 0.902443 44.7059 0.249026 43.5709C-0.17978 42.8416 0.0244132 42.1614 0.249026 41.5796C1.95608 36.9701 6.82813 28.3289 10.0176 22.732C10.3443 22.1543 10.6955 21.5725 11.0223 20.9701C15.9474 12.4764 22.4489 2.07335 23.7312 0.409839C23.9068 0.159903 24.258 -0.118714 24.5602 0.0574703C24.8094 0.209071 24.8094 0.512272 24.7849 0.737624C24.7849 0.762208 24.7114 1.06541 24.6583 1.19243C22.5755 9.78449 22.8001 18.2004 23.7557 26.5876Z" fill="#00A3E0"/>
<path d="M30.9393 29.2302C28.8811 28.2714 27.7988 27.7921 27.0474 25.223C26.2674 22.5762 25.4384 16.5818 25.4384 10.9111C25.4384 8.54289 25.5895 5.41665 25.9652 3.2C26.2674 1.53649 26.7166 0.278618 28.0235 0.278618C28.877 0.278618 29.3548 0.807171 29.755 1.28656C32.8955 5.06428 37.8656 13.6318 41.1326 19.2246C41.4594 19.7777 41.7861 20.3595 42.1373 20.9618C47.0093 29.4761 52.7349 40.338 53.5394 42.2761C53.666 42.5547 53.7395 42.9808 53.4128 43.1816C53.1637 43.3086 52.9105 43.157 52.7349 43.03L52.4082 42.7022C46.0292 36.5808 38.6701 32.5736 30.9352 29.222L30.9393 29.2302Z" fill="#00A3E0"/>
<path d="M25.0627 34.1183C26.9208 32.8072 27.8764 32.127 30.4615 32.7334C33.1242 33.389 38.7232 35.6794 43.6197 38.5024C45.6535 39.6866 48.2916 41.3992 50.0232 42.8374C51.2769 43.9191 52.1591 44.927 51.5056 46.062C51.0768 46.7913 50.3989 46.9675 49.7741 47.0699C44.9265 47.9017 35.0314 47.9508 28.6034 48.0041H26.5941C16.801 47.9795 4.56984 47.5247 2.48707 47.2502C2.18486 47.2256 1.78465 47.074 1.78465 46.6971C1.78465 46.4184 2.03376 46.2423 2.23795 46.1685C2.28696 46.1685 2.58917 46.0661 2.69126 46.0415C11.153 43.5708 18.312 39.1867 25.0667 34.1224L25.0627 34.1183Z" fill="#00A3E0"/>
</g>
<defs>
<clipPath id="clip0_2_21">
<rect width="246.575" height="48" fill="white"/>
</clipPath>
</defs>
</svg>
